<?xml version="1.0" encoding="UTF-8"?>
<svg width="50px" height="50px" viewBox="0 0 50 50" version="1.1" xmlns="http://www.w3.org/2000/svg" xmlns:xlink="http://www.w3.org/1999/xlink">
    <!-- Generator: Sketch 49.1 (51147) - http://www.bohemiancoding.com/sketch -->
    <title>Crypto Finance logo / gold</title>
    <desc>Created with Sketch.</desc>
    <defs>
        <polygon id="path-1" points="0.019138756 0.029984051 39.9113238 0.029984051 39.9113238 49.7416268 0.019138756 49.7416268"></polygon>
        <path d="M19.9947287,49.7416268 L19.9166071,49.7416268 L1.59330144,40.9119617 L0.019138756,40.1530861 L0.019138756,9.46494577 L19.9556619,0.029984051 L38.3001595,8.71132376 L39.9113238,9.47400319 L39.9113238,40.1438596 L38.3180223,40.9119617 L21.1779904,49.1716108 M20.8204147,25.5837321 L20.8204147,30.0972887 L23.8698565,30.0972887 L23.8698565,32.0988836 L20.8204147,32.0988836 L20.8204147,33.7547049 L25.2118022,33.7547049 L25.2118022,35.7684211 L20.8204147,35.7684211 L20.8204147,39.2998405 L18.8102073,39.2998405 L18.8102073,25.4606061 C18.4822967,25.3869219 18.1566188,25.2934609 17.8354067,25.1677831 C17.0644338,24.8663477 16.3674641,24.430941 15.7639553,23.8730463 C15.1569378,23.3113238 14.6720893,22.6299841 14.3221691,21.846571 C13.9709729,21.061244 13.7926635,20.1968102 13.7926635,19.277512 C13.7926635,19.0165869 13.8089314,18.7451356 13.8405104,18.4625199 C13.9314195,17.6478469 14.1712919,16.8880383 14.55311,16.2044657 C14.9339713,15.5240829 15.4255183,14.9371611 16.0140351,14.461244 C16.5990431,13.9881978 17.2570973,13.6229665 17.969378,13.3748006 C18.2452951,13.2787879 18.5269537,13.2073365 18.8102073,13.1480064 L18.8102073,10.4905901 L20.8204147,10.4905901 L20.8204147,13.0357257 C21.1438596,13.0682616 21.4673046,13.1244019 21.7881978,13.2057416 C22.3259968,13.3425837 22.8395534,13.5476874 23.3141946,13.81563 C23.7904306,14.0851675 24.245614,14.4382775 24.6669856,14.8650718 C25.0889952,15.292185 25.4519936,15.7821372 25.7457735,16.3218501 L26.0542265,16.8880383 L23.9454545,16.8880383 L23.830622,16.7346093 C23.5291866,16.3330144 23.1760766,15.9913876 22.7795853,15.7183413 C22.3830941,15.445933 21.9642743,15.2421053 21.5346093,15.1135566 C20.5125997,14.8079745 19.4580542,14.8711324 18.5333333,15.2293461 C18.000638,15.4350877 17.5180223,15.7362041 17.0982456,16.1247209 C16.6813397,16.5113238 16.3444976,16.9897927 16.0976077,17.5460925 C15.8503987,18.1014354 15.7250399,18.7097289 15.7250399,19.35311 C15.7295056,19.9881978 15.8555024,20.5805423 16.0988836,21.1106858 C16.3448166,21.645614 16.6867624,22.1196172 17.1145136,22.5183413 C17.5451356,22.9205742 18.0318979,23.2325359 18.5607656,23.4452951 C19.0883573,23.6580542 19.6405104,23.7684211 20.2012759,23.7732057 C20.8867624,23.7594896 21.5677831,23.5869219 22.214992,23.261882 C22.8590112,22.937799 23.4162679,22.4555024 23.8730463,21.8280702 L23.9875598,21.6704944 L26.1186603,21.6704944 L25.7866029,22.2446571 C25.4593301,22.8105263 25.0854864,23.3097289 24.6755981,23.7285486 C24.2634769,24.1489633 23.8022329,24.507177 23.3052632,24.7933014 C22.8092504,25.0794258 22.2979266,25.291866 21.7859649,25.4242424 M37.8293461,38.9527911 L37.8293461,10.6727273 L19.9556619,2.21403509 L2.08197767,10.6727273 L2.08197767,38.9527911 L19.9556619,47.5661882" id="path-3"></path>
    </defs>
    <g id="Symbols" stroke="none" stroke-width="1" fill="none" fill-rule="evenodd">
        <g id="footer" transform="translate(-335.000000, -78.000000)">
            <g id="Group-10">
                <g transform="translate(335.000000, 78.000000)">
                    <g id="Crypto-Finance-logo-/-gold">
                        <g id="Group-3">
                            <mask id="mask-2" fill="white">
                                <use xlink:href="#path-1"></use>
                            </mask>
                            <g id="Clip-2"></g>
                            <path d="M20.8204147,25.5837321 L20.8204147,30.0972887 L23.8698565,30.0972887 L23.8698565,32.0988836 L20.8204147,32.0988836 L20.8204147,33.7547049 L25.2118022,33.7547049 L25.2118022,35.7684211 L20.8204147,35.7684211 L20.8204147,39.2998405 L18.8102073,39.2998405 L18.8102073,25.4606061 C18.4822967,25.3869219 18.1566188,25.2934609 17.8354067,25.1677831 C17.0644338,24.8663477 16.3674641,24.430941 15.7639553,23.8730463 C15.1569378,23.3113238 14.6720893,22.6299841 14.3221691,21.846571 C13.9709729,21.061244 13.7926635,20.1968102 13.7926635,19.277512 C13.7926635,19.0165869 13.8089314,18.7451356 13.8405104,18.4625199 C13.9314195,17.6478469 14.1712919,16.8880383 14.55311,16.2044657 C14.9339713,15.5240829 15.4255183,14.9371611 16.0140351,14.461244 C16.5990431,13.9881978 17.2570973,13.6229665 17.969378,13.3748006 C18.2452951,13.2787879 18.5269537,13.2073365 18.8102073,13.1480064 L18.8102073,10.4905901 L20.8204147,10.4905901 L20.8204147,13.0357257 C21.1438596,13.0682616 21.4673046,13.1244019 21.7881978,13.2057416 C22.3259968,13.3425837 22.8395534,13.5476874 23.3141946,13.81563 C23.7904306,14.0851675 24.245614,14.4382775 24.6669856,14.8650718 C25.0889952,15.292185 25.4519936,15.7821372 25.7457735,16.3218501 L26.0542265,16.8880383 L23.9454545,16.8880383 L23.830622,16.7346093 C23.5291866,16.3330144 23.1760766,15.9913876 22.7795853,15.7183413 C22.3830941,15.445933 21.9642743,15.2421053 21.5346093,15.1135566 C20.5125997,14.8079745 19.4580542,14.8711324 18.5333333,15.2293461 C18.000638,15.4350877 17.5180223,15.7362041 17.0982456,16.1247209 C16.6813397,16.5113238 16.3444976,16.9897927 16.0976077,17.5460925 C15.8503987,18.1014354 15.7250399,18.7097289 15.7250399,19.35311 C15.7295056,19.9881978 15.8555024,20.5805423 16.0988836,21.1106858 C16.3448166,21.645614 16.6867624,22.1196172 17.1145136,22.5183413 C17.5451356,22.9205742 18.0318979,23.2325359 18.5607656,23.4452951 C19.0883573,23.6580542 19.6405104,23.7684211 20.2012759,23.7732057 C20.8867624,23.7594896 21.5677831,23.5869219 22.214992,23.261882 C22.8590112,22.937799 23.4162679,22.4555024 23.8730463,21.8280702 L23.9875598,21.6704944 L26.1186603,21.6704944 L25.7866029,22.2446571 C25.4593301,22.8105263 25.0854864,23.3097289 24.6755981,23.7285486 C24.2634769,24.1489633 23.8022329,24.507177 23.3052632,24.7933014 C22.8092504,25.0794258 22.2979266,25.291866 21.7859649,25.4242424 C21.4730463,25.5049442 21.1486443,25.5524721 20.8204147,25.5837321 Z M37.8293461,38.9527911 L19.9556619,47.5661882 L2.08197767,38.9527911 L2.08197767,10.6727273 L19.9556619,2.21403509 L37.8293461,10.6727273 L37.8293461,38.9527911 Z M38.3001595,8.71132376 L19.9556619,0.029984051 L0,9.47400319 L0,40.1438596 L1.59330144,40.9119617 L19.9556619,49.7604466 L21.1779904,49.1716108 L38.3180223,40.9119617 L39.9113238,40.1438596 L39.9113238,9.47400319 L38.3001595,8.71132376 Z" id="Fill-1" fill="#C8A07D" mask="url(#mask-2)"></path>
                        </g>
                        <g id="Group-6">
                            <mask id="mask-4" fill="white">
                                <use xlink:href="#path-3"></use>
                            </mask>
                            <g id="Clip-5"></g>
                            <polyline id="Fill-4" fill="#C8A07D" mask="url(#mask-4)" points="38.307496 8.70494418 19.9556619 0.0200956938 -0.00797448166 9.4676236 -0.00797448166 40.1499203 1.58596491 40.9183413 18.7326954 49.1811802 19.9556619 49.7706539 21.1783094 49.1811802 38.3253589 40.9183413 39.9192982 40.1499203 39.9192982 9.4676236 38.307496 8.70494418"></polyline>
                        </g>
                        <path d="M50.3990431,24.8953748 C50.3990431,21.2255183 53.137799,18.7199362 56.6641148,18.7199362 C59.0807018,18.7199362 60.5665072,19.9728868 61.461563,21.4047847 L59.6714514,22.3180223 C59.0985646,21.3330144 57.9527911,20.5814992 56.6641148,20.5814992 C54.3014354,20.5814992 52.5470494,22.3891547 52.5470494,24.8953748 C52.5470494,27.4012759 54.3014354,29.2095694 56.6641148,29.2095694 C57.9527911,29.2095694 59.0985646,28.4755981 59.6714514,27.4730463 L61.461563,28.3859649 C60.5486443,29.8178628 59.0807018,31.0708134 56.6641148,31.0708134 C53.137799,31.0708134 50.3990431,28.5649123 50.3990431,24.8953748" id="Fill-7" fill="#FFFFFE"></path>
                        <path d="M70.3189793,22.6577352 C70.3189793,21.5119617 69.4599681,20.7601276 68.2787879,20.7601276 L65.414673,20.7601276 L65.414673,24.5553429 L68.2787879,24.5553429 C69.4599681,24.5553429 70.3189793,23.8031898 70.3189793,22.6577352 Z M70.1400319,30.8561404 L67.4909091,26.3990431 L65.414673,26.3990431 L65.414673,30.8561404 L63.3202552,30.8561404 L63.3202552,18.9164274 L68.5652313,18.9164274 C70.9279107,18.9164274 72.4673046,20.4561404 72.4673046,22.6577352 C72.4673046,24.7878788 71.0711324,25.9333333 69.6392344,26.1665072 L72.5569378,30.8561404 L70.1400319,30.8561404 Z" id="Fill-8" fill="#FFFFFE"></path>
                        <polyline id="Fill-9" fill="#FFFFFE" points="77.8169059 30.8561404 77.8169059 25.8979266 73.1811802 18.9164274 75.5795853 18.9164274 78.8730463 24.0363636 82.1311005 18.9164274 84.5298246 18.9164274 79.9116427 25.8979266 79.9116427 30.8561404 77.8169059 30.8561404"></polyline>
                        <path d="M93.0118022,22.6577352 C93.0118022,21.5119617 92.1524721,20.7601276 90.9712919,20.7601276 L88.107496,20.7601276 L88.107496,24.5553429 L90.9712919,24.5553429 C92.1524721,24.5553429 93.0118022,23.8031898 93.0118022,22.6577352 Z M86.0127592,30.8561404 L86.0127592,18.9164274 L91.2577352,18.9164274 C93.7636364,18.9164274 95.1598086,20.6347687 95.1598086,22.6577352 C95.1598086,24.6803828 93.7457735,26.3990431 91.2577352,26.3990431 L88.107496,26.3990431 L88.107496,30.8561404 L86.0127592,30.8561404 Z" id="Fill-10" fill="#FFFFFE"></path>
                        <polyline id="Fill-11" fill="#FFFFFE" points="99.9186603 30.8561404 99.9186603 20.7601276 96.3030303 20.7601276 96.3030303 18.9164274 105.628708 18.9164274 105.628708 20.7601276 102.013397 20.7601276 102.013397 30.8561404 99.9186603 30.8561404"></polyline>
                        <path d="M116.653907,24.8953748 C116.653907,22.4251994 115.096651,20.5814992 112.697608,20.5814992 C110.28134,20.5814992 108.741946,22.4251994 108.741946,24.8953748 C108.741946,27.3473684 110.28134,29.2095694 112.697608,29.2095694 C115.096651,29.2095694 116.653907,27.3473684 116.653907,24.8953748 Z M106.593939,24.8953748 C106.593939,21.3330144 109.117703,18.7199362 112.697608,18.7199362 C116.277831,18.7199362 118.801914,21.3330144 118.801914,24.8953748 C118.801914,28.4577352 116.277831,31.0708134 112.697608,31.0708134 C109.117703,31.0708134 106.593939,28.4577352 106.593939,24.8953748 Z" id="Fill-12" fill="#FFFFFE"></path>
                        <polyline id="Fill-13" fill="#FFFFFE" points="125.778628 30.8561404 125.778628 18.9164274 133.958852 18.9164274 133.958852 20.7601276 127.872727 20.7601276 127.872727 23.8570973 133.833812 23.8570973 133.833812 25.7007974 127.872727 25.7007974 127.872727 30.8561404 125.778628 30.8561404"></polyline>
                        <polygon id="Fill-14" fill="#FFFFFE" points="136.015311 30.8561404 138.110048 30.8561404 138.110048 18.9164274 136.015311 18.9164274"></polygon>
                        <polyline id="Fill-15" fill="#FFFFFE" points="149.152791 30.8561404 142.923445 22.3358852 142.923445 30.8561404 140.829346 30.8561404 140.829346 18.9164274 142.977352 18.9164274 149.081659 27.2044657 149.081659 18.9164274 151.175758 18.9164274 151.175758 30.8561404 149.152791 30.8561404"></polyline>
                        <path d="M158.637321,21.0290271 L156.489314,26.7212121 L160.785327,26.7212121 L158.637321,21.0290271 Z M162.25327,30.8561404 L161.376077,28.5649123 L155.898246,28.5649123 L155.021053,30.8561404 L152.640829,30.8561404 L157.330463,18.9164274 L159.944179,18.9164274 L164.633812,30.8561404 L162.25327,30.8561404 Z" id="Fill-16" fill="#FFFFFE"></path>
                        <polyline id="Fill-17" fill="#FFFFFE" points="174.440191 30.8561404 168.210845 22.3358852 168.210845 30.8561404 166.116746 30.8561404 166.116746 18.9164274 168.264753 18.9164274 174.369059 27.2044657 174.369059 18.9164274 176.463158 18.9164274 176.463158 30.8561404 174.440191 30.8561404"></polyline>
                        <path d="M178.644019,24.8953748 C178.644019,21.2255183 181.382775,18.7199362 184.909091,18.7199362 C187.325678,18.7199362 188.811483,19.9728868 189.706539,21.4047847 L187.916108,22.3180223 C187.343541,21.3330144 186.198086,20.5814992 184.909091,20.5814992 C182.546093,20.5814992 180.792026,22.3891547 180.792026,24.8953748 C180.792026,27.4012759 182.546093,29.2095694 184.909091,29.2095694 C186.198086,29.2095694 187.343541,28.4755981 187.916108,27.4730463 L189.706539,28.3859649 C188.793301,29.8178628 187.325678,31.0708134 184.909091,31.0708134 C181.382775,31.0708134 178.644019,28.5649123 178.644019,24.8953748" id="Fill-18" fill="#FFFFFE"></path>
                        <polyline id="Fill-19" fill="#FFFFFE" points="191.565231 30.8561404 191.565231 18.9164274 199.745455 18.9164274 199.745455 20.7601276 193.659649 20.7601276 193.659649 23.8570973 199.620415 23.8570973 199.620415 25.7007974 193.659649 25.7007974 193.659649 29.0124402 199.745455 29.0124402 199.745455 30.8561404 191.565231 30.8561404"></polyline>
                    </g>
                </g>
            </g>
        </g>
    </g>
</svg>